<?xml version="1.0" encoding="UTF-8" standalone="no"?>
<svg
   xmlns:dc="http://purl.org/dc/elements/1.1/"
   xmlns:cc="http://creativecommons.org/ns#"
   xmlns:rdf="http://www.w3.org/1999/02/22-rdf-syntax-ns#"
   xmlns:svg="http://www.w3.org/2000/svg"
   xmlns="http://www.w3.org/2000/svg"
   id="svg8"
   version="1.1"
   viewBox="0 0 184.60075 124.15469"
   height="124.15469mm"
   width="184.60075mm">
  <defs
     id="defs2" />
  <metadata
     id="metadata5">
    <rdf:RDF>
      <cc:Work
         rdf:about="">
        <dc:format>image/svg+xml</dc:format>
        <dc:type
           rdf:resource="http://purl.org/dc/dcmitype/StillImage" />
        <dc:title></dc:title>
      </cc:Work>
    </rdf:RDF>
  </metadata>
  <g
     transform="translate(-13.538352,-68.146471)"
     id="layer1">
    <path
       id="path5214"
       d="m 99.433024,190.98203 c -0.610484,-0.93172 -3.512889,-2.83432 -6.449793,-4.228 -3.367961,-1.59824 -7.157066,-4.20165 -10.260949,-7.05008 -3.121144,-2.86428 -7.175437,-5.64577 -11.084367,-7.60456 -5.397751,-2.70485 -6.739781,-3.78301 -10.805263,-8.68068 -4.131202,-4.97686 -10.759993,-11.06869 -12.044323,-11.06869 -0.56379,0 0.281459,12.38388 1.009269,14.78687 0.357881,1.18164 1.877163,2.28521 5.189167,3.76929 6.716916,3.0098 10.40315,6.72847 5.746586,5.79716 -2.732561,-0.54652 -2.716292,0.11964 0.0377,1.54379 2.932062,1.51623 4.925126,3.60983 4.925126,5.17356 0,1.22297 -0.267832,1.20636 -4.899787,-0.30368 -2.694884,-0.87856 -5.914924,-2.12232 -7.155643,-2.76392 -1.240721,-0.6416 -2.417524,-1.00488 -2.615118,-0.80729 -0.197593,0.1976 0.02601,1.52665 0.496898,2.95345 1.586468,4.80706 -0.199472,4.22592 -5.974577,-1.94407 -5.083231,-5.43081 -5.546961,-6.18197 -6.166579,-9.98865 -0.3685,-2.26392 -1.16166,-5.61383 -1.76257,-7.44425 -2.110092,-6.42737 -9.563962,-20.49406 -13.066893,-24.65937 -5.52416,-6.56874 -7.71122,-10.18341 -9.39972,-15.53538 -5.64491,-17.89247 3.89112,-37.599901 22.785661,-47.089442 11.17147,-5.610732 23.637425,-8.353249 34.345152,-7.555958 15.762478,1.173665 31.568379,7.86215 44.459429,18.813621 8.23994,7.000159 7.58291,6.747457 14.83923,5.707372 10.9357,-1.567466 15.86056,-0.357327 24.10404,5.922852 7.38104,5.623145 11.76658,13.562845 13.45494,24.359245 0.95619,6.1145 2.00496,8.01297 9.74571,17.64162 10.72766,13.34403 20.57665,29.10452 19.10657,30.5746 -0.23499,0.23499 -0.53139,0.29431 -0.65868,0.13185 -0.12728,-0.16248 -2.11031,-2.84773 -4.40671,-5.96722 -5.46609,-7.42526 -26.39343,-28.36916 -32.06161,-32.08697 -5.67741,-3.72386 -11.36198,-5.84323 -15.67275,-5.84323 -2.58296,0 -4.66354,0.6655 -8.65835,2.76948 -9.52792,5.01813 -13.07216,5.87459 -26.67093,6.44499 -11.155488,0.46792 -12.516275,0.66964 -15.95195,2.36475 -5.966378,2.94372 -11.515683,7.72026 -13.334646,11.47773 -1.917755,3.96156 -2.138283,9.63707 -0.497729,12.80955 2.291128,4.43055 9.774632,8.19645 19.687032,9.90705 6.604363,1.13973 10.595053,2.58171 10.595053,3.82838 0,0.35541 -1.1964,0.46518 -2.65866,0.24395 -3.40823,-0.51565 -2.38908,0.54344 2.11931,2.20238 3.51303,1.29268 6.21116,3.96055 6.21116,6.14152 0,1.52171 -1.13255,2.39955 -1.76841,1.3707 -1.1983,-1.93888 -10.3154,-4.87738 -15.340841,-4.94444 -1.859425,-0.0248 -1.856171,-0.0148 0.886219,2.72758 1.978342,1.97835 2.752492,3.35283 2.752492,4.88698 0,2.76203 -1.68725,3.41731 -3.129896,1.21556 z"
       style="fill:#000000;stroke-width:0.70897567" />
  </g>
</svg>
